<svg width="17" height="14" viewBox="0 0 17 14" fill="none" xmlns="http://www.w3.org/2000/svg">
<g clip-path="url(#clip0_3_16)">
<path d="M15.1022 8.03535H3.427L7.00043 12.3274C7.16752 12.5284 7.24792 12.7876 7.22392 13.0479C7.19992 13.3082 7.0735 13.5483 6.87251 13.7154C6.67141 13.8825 6.41221 13.9629 6.15191 13.9389C5.89161 13.9149 5.6515 13.7885 5.4844 13.5874L0.562406 7.68096C0.529206 7.63398 0.499605 7.58463 0.473805 7.5333C0.473805 7.48408 0.473805 7.45455 0.404805 7.40533C0.360205 7.29246 0.336904 7.17231 0.335904 7.05094C0.336904 6.92957 0.360205 6.80942 0.404805 6.69655C0.404805 6.64733 0.404805 6.6178 0.473805 6.56858C0.499605 6.51725 0.529206 6.46789 0.562406 6.42091L5.4844 0.514425C5.577 0.403302 5.6929 0.313936 5.8239 0.252685C5.9549 0.191433 6.0978 0.1598 6.2424 0.160036C6.4724 0.159585 6.69531 0.239692 6.87251 0.38645C6.97211 0.469091 7.05453 0.570586 7.11493 0.68512C7.17532 0.799654 7.21253 0.924976 7.22442 1.05391C7.2363 1.18285 7.22265 1.31286 7.18421 1.43651C7.14578 1.56015 7.08332 1.675 7.00043 1.77448L3.427 6.06652L15.1022 6.06653C15.3632 6.06653 15.6136 6.17024 15.7983 6.35485C15.9829 6.53947 16.0866 6.78986 16.0866 7.05094C16.0866 7.31202 15.9829 7.56241 15.7983 7.74703C15.6136 7.93164 15.3632 8.03535 15.1022 8.03535Z" fill="#FD9636"/>
</g>
<defs>
<clipPath id="clip0_3_16">
<rect width="17" height="14" fill="white" transform="matrix(-1 0 0 1 17 0)"/>
</clipPath>
</defs>
</svg>
