<svg width="159" height="53" viewBox="0 0 159 53" fill="none" xmlns="http://www.w3.org/2000/svg">
<path d="M144.652 6.84515L145.904 7.5239L142.484 13.8279L141.233 13.1492L144.652 6.84515Z" fill="#FD9636"/>
<path d="M143.43 3.12824C143.095 3.74689 142.95 4.45116 143.015 5.152C143.079 5.85284 143.35 6.51877 143.793 7.06558C144.236 7.61239 144.832 8.01552 145.504 8.22398C146.176 8.43245 146.895 8.4369 147.57 8.23676C148.245 8.03662 148.845 7.64089 149.295 7.0996C149.745 6.55832 150.024 5.89579 150.097 5.1958C150.171 4.49581 150.035 3.78981 149.707 3.16706C149.379 2.54431 148.874 2.03278 148.255 1.69717C147.424 1.25274 146.452 1.15374 145.549 1.42164C144.645 1.68954 143.884 2.30275 143.43 3.12824Z" fill="#36BEF9"/>
<path d="M121.263 6.84515L120.011 7.5239L123.431 13.8279L124.682 13.1492L121.263 6.84515Z" fill="#FD9636"/>
<path d="M122.485 3.12824C122.821 3.74689 122.965 4.45116 122.9 5.152C122.836 5.85284 122.565 6.51877 122.122 7.06558C121.679 7.61239 121.083 8.01552 120.411 8.22398C119.739 8.43245 119.02 8.4369 118.345 8.23676C117.67 8.03662 117.07 7.64089 116.62 7.0996C116.17 6.55832 115.891 5.89579 115.818 5.1958C115.744 4.49581 115.88 3.78981 116.208 3.16706C116.536 2.54431 117.041 2.03278 117.66 1.69717C118.491 1.25274 119.463 1.15374 120.366 1.42164C121.27 1.68954 122.031 2.30275 122.485 3.12824Z" fill="#36BEF9"/>
<path d="M123.882 44.1832H140.679C141.252 44.1832 141.803 43.9552 142.209 43.5495C142.614 43.1437 142.842 42.5934 142.842 42.0196C142.842 41.4457 142.614 40.8954 142.209 40.4897C141.803 40.0839 141.252 39.856 140.679 39.856H123.882C123.308 39.856 122.758 40.0839 122.352 40.4897C121.947 40.8954 121.719 41.4457 121.719 42.0196C121.719 42.5934 121.947 43.1437 122.352 43.5495C122.758 43.9552 123.308 44.1832 123.882 44.1832Z" fill="#FD9636"/>
<path d="M154.173 33.8209C151.783 33.8209 149.846 31.8836 149.846 29.4937C149.846 27.1039 151.783 25.1665 154.173 25.1665C156.563 25.1665 158.5 27.1039 158.5 29.4937C158.5 31.8836 156.563 33.8209 154.173 33.8209Z" fill="#36BEF9"/>
<path d="M110.417 33.5358C108.027 33.5358 106.089 31.5984 106.089 29.2086C106.089 26.8187 108.027 24.8813 110.417 24.8813C112.806 24.8813 114.744 26.8187 114.744 29.2086C114.744 31.5984 112.806 33.5358 110.417 33.5358Z" fill="#36BEF9"/>
<path d="M131.754 9.96357C131.754 9.96357 114.132 9.75006 111.342 25.0092C108.552 40.2683 123.455 40.496 127.74 40.7949C129.69 40.923 133.846 40.9373 137.505 40.8661C145.689 40.7237 151.383 39.158 153.333 31.6138C153.562 30.7329 153.705 29.832 153.76 28.9236C154.23 20.6535 148.693 9.49384 131.754 9.96357Z" fill="#36BEF9"/>
<path d="M144.536 33.1512L118.915 33.5498C118.277 33.5592 117.644 33.443 117.052 33.2077C116.459 32.9724 115.919 32.6227 115.461 32.1786C115.004 31.7345 114.639 31.2046 114.386 30.6192C114.134 30.0339 113.999 29.4045 113.99 28.7671C113.978 28.1285 114.093 27.4939 114.328 26.8997C114.562 26.3056 114.911 25.7635 115.356 25.3047C115.8 24.8458 116.331 24.4792 116.917 24.2257C117.503 23.9723 118.134 23.8371 118.772 23.8278L144.394 23.4292C145.683 23.4102 146.926 23.903 147.852 24.7996C148.778 25.6961 149.311 26.9233 149.333 28.2119C149.343 28.8513 149.226 29.4862 148.99 30.0804C148.754 30.6746 148.403 31.2165 147.958 31.6752C147.512 32.1339 146.981 32.5003 146.394 32.7536C145.807 33.0068 145.176 33.1419 144.536 33.1512Z" fill="#FD9636"/>
<path d="M124.252 28.2404C124.144 28.6181 123.897 28.9413 123.562 29.1457C123.226 29.3501 122.826 29.4208 122.44 29.3437C122.055 29.2666 121.713 29.0474 121.481 28.7296C121.25 28.4118 121.147 28.0187 121.192 27.6283C121.231 27.4283 121.309 27.2379 121.422 27.0681C121.535 26.8983 121.68 26.7524 121.849 26.6387C122.019 26.525 122.209 26.4458 122.408 26.4055C122.608 26.3653 122.814 26.3648 123.014 26.4042C123.216 26.4434 123.408 26.522 123.58 26.6355C123.751 26.749 123.899 26.8952 124.014 27.0657C124.129 27.2362 124.209 27.4277 124.25 27.6293C124.291 27.8308 124.292 28.0385 124.252 28.2404Z" fill="#425A8B"/>
<path d="M142.131 27.9419C142.073 28.2474 141.927 28.529 141.709 28.7507C141.491 28.9725 141.212 29.1245 140.908 29.1872C140.603 29.2499 140.287 29.2206 139.999 29.103C139.711 28.9855 139.465 28.7849 139.292 28.5269C139.119 28.2689 139.026 27.9651 139.026 27.6543C139.026 27.3434 139.118 27.0396 139.291 26.7814C139.464 26.5233 139.71 26.3225 139.998 26.2047C140.286 26.0869 140.602 26.0574 140.906 26.1199C141.107 26.1573 141.299 26.2344 141.47 26.3467C141.64 26.459 141.787 26.6042 141.901 26.7739C142.015 26.9435 142.094 27.1342 142.133 27.3347C142.173 27.5353 142.172 27.7417 142.131 27.9419Z" fill="#425A8B"/>
<path d="M128.54 27.8601C128.54 27.8601 128.44 27.9863 128.427 28.2457C128.411 28.6122 128.483 28.9773 128.636 29.3105C128.855 29.8284 129.204 30.2814 129.648 30.6262C130.201 31.0482 130.877 31.277 131.572 31.2775C132.269 31.2494 132.936 30.9852 133.463 30.5283C133.888 30.1746 134.215 29.7172 134.412 29.2003C134.549 28.8629 134.605 28.4982 134.576 28.1353C134.544 27.8667 134.53 27.7394 134.445 27.7492C134.36 27.7591 134.366 28.3029 133.974 29.0074C133.753 29.4132 133.447 29.7664 133.077 30.0428C132.644 30.3826 132.116 30.579 131.566 30.6047C131.034 30.585 130.518 30.4164 130.076 30.1181C129.687 29.8592 129.363 29.5144 129.129 29.1102C128.646 28.4066 128.64 27.8627 128.54 27.8601Z" fill="#425A8B"/>
<path d="M111.385 24.4546C111.325 24.5729 111.277 24.6969 111.242 24.8247C111.242 24.9528 111.157 25.1094 111.114 25.2802C111.05 25.481 110.998 25.6854 110.958 25.8922C110.855 26.4238 110.784 26.9609 110.744 27.5007C110.695 28.1641 110.695 28.8302 110.744 29.4935C110.809 30.1549 110.919 30.8111 111.072 31.4578C111.185 31.9855 111.337 32.5041 111.527 33.0094C111.598 33.2229 111.698 33.4079 111.769 33.5787L111.983 34.0058L112.182 34.3474C112.147 34.2172 112.095 34.0926 112.025 33.9773C112.025 33.8634 111.911 33.7211 111.84 33.5503C111.769 33.3795 111.684 33.1944 111.612 32.9667C111.427 32.4633 111.271 31.9501 111.143 31.4294C110.991 30.7872 110.882 30.1358 110.815 29.4793C110.773 28.8252 110.773 28.169 110.815 27.5149C110.851 26.9754 110.918 26.4384 111.015 25.9065C111.046 25.7003 111.089 25.4959 111.143 25.2944C111.169 25.1399 111.207 24.9876 111.257 24.8389C111.356 24.5969 111.385 24.4546 111.385 24.4546Z" fill="#FFB800"/>
<path d="M153.134 24.5542C153.187 24.6737 153.23 24.7975 153.262 24.9243C153.317 25.0735 153.365 25.2255 153.404 25.3798C153.404 25.5506 153.504 25.7499 153.546 25.9919C153.655 26.5228 153.731 27.06 153.774 27.6003C153.823 28.2637 153.823 28.9298 153.774 29.5931C153.715 30.2552 153.605 30.9119 153.447 31.5574C153.31 32.079 153.144 32.5923 152.949 33.0947C152.863 33.3225 152.764 33.5075 152.692 33.6783C152.63 33.8203 152.559 33.9582 152.479 34.0911C152.426 34.2169 152.359 34.3363 152.28 34.447C152.311 34.3158 152.364 34.1908 152.436 34.0769L152.621 33.6356C152.692 33.4648 152.778 33.2798 152.849 33.0663C153.039 32.5634 153.201 32.0501 153.333 31.529C153.473 30.8851 153.577 30.2341 153.646 29.5789C153.688 28.92 153.688 28.2592 153.646 27.6003C153.61 27.0656 153.543 26.5333 153.447 26.0061C153.447 25.7783 153.361 25.5791 153.333 25.394L153.219 24.9385C153.171 24.8155 153.142 24.6859 153.134 24.5542Z" fill="#FFB800"/>
<path d="M81.7047 40.9142V44.811H94.6108V40.9142H81.7047ZM92.9788 20.5641V44.811H97.9747V20.5641H92.9788ZM83.3866 30.4394V34.2363H94.6108V30.4394H83.3866ZM81.7213 20.5641V24.4776H94.6108V20.5641H81.7213ZM71.9792 41.3971C71.3908 41.3971 70.869 41.2861 70.4139 41.0641C69.9587 40.8309 69.6034 40.509 69.3481 40.0982C69.0816 39.6763 68.9428 39.1823 68.9317 38.6161H64.4187C64.4298 39.8817 64.7684 41.0086 65.4346 41.9967C66.1007 42.9736 66.9944 43.7452 68.1157 44.3114C69.237 44.8665 70.4916 45.1441 71.8793 45.1441C73.2782 45.1441 74.4994 44.911 75.543 44.4447C76.5755 43.9784 77.4359 43.3345 78.1242 42.5129C78.8126 41.6803 79.3288 40.7144 79.673 39.6153C80.0171 38.5051 80.1892 37.3171 80.1892 36.0515V35.5686C80.1892 34.2918 80.0171 33.1039 79.673 32.0048C79.3288 30.8946 78.8126 29.9287 78.1242 29.1072C77.4359 28.2745 76.5755 27.625 75.543 27.1587C74.5105 26.6925 73.3004 26.4593 71.9126 26.4593C70.4361 26.4593 69.1427 26.7424 68.0325 27.3086C66.9111 27.8748 66.0341 28.6853 65.4013 29.74C64.7573 30.7836 64.4298 32.0214 64.4187 33.4536H68.9317C68.9428 32.8541 69.0705 32.3101 69.3147 31.8216C69.5479 31.3331 69.8921 30.9445 70.3472 30.6559C70.7913 30.3561 71.3409 30.2063 71.9959 30.2063C72.6953 30.2063 73.2671 30.3561 73.7112 30.6559C74.1552 30.9445 74.4994 31.3442 74.7437 31.8549C74.9879 32.3545 75.16 32.9263 75.2599 33.5702C75.3487 34.203 75.3931 34.8691 75.3931 35.5686V36.0515C75.3931 36.7509 75.3487 37.4226 75.2599 38.0665C75.1711 38.7104 75.0046 39.2822 74.7603 39.7818C74.505 40.2814 74.1552 40.6755 73.7112 40.9642C73.2671 41.2528 72.6898 41.3971 71.9792 41.3971ZM62.4037 35.9849V35.6352C62.4037 34.314 62.215 33.0983 61.8375 31.9881C61.46 30.8668 60.9105 29.8954 60.1888 29.0738C59.4672 28.2523 58.579 27.6139 57.524 27.1587C56.47 26.6925 55.26 26.4593 53.894 26.4593C52.528 26.4593 51.313 26.6925 50.247 27.1587C49.181 27.6139 48.287 28.2523 47.566 29.0738C46.833 29.8954 46.278 30.8668 45.9 31.9881C45.523 33.0983 45.334 34.314 45.334 35.6352V35.9849C45.334 37.2949 45.523 38.5106 45.9 39.6319C46.278 40.7421 46.833 41.7136 47.566 42.5462C48.287 43.3678 49.176 44.0061 50.23 44.4613C51.285 44.9165 52.495 45.1441 53.861 45.1441C55.226 45.1441 56.442 44.9165 57.508 44.4613C58.562 44.0061 59.4561 43.3678 60.1888 42.5462C60.9105 41.7136 61.46 40.7421 61.8375 39.6319C62.215 38.5106 62.4037 37.2949 62.4037 35.9849ZM57.608 35.6352V35.9849C57.608 36.7398 57.541 37.4448 57.408 38.0998C57.275 38.7549 57.064 39.3322 56.775 39.8318C56.475 40.3202 56.087 40.7033 55.609 40.9808C55.132 41.2584 54.549 41.3971 53.861 41.3971C53.195 41.3971 52.623 41.2584 52.145 40.9808C51.668 40.7033 51.285 40.3202 50.996 39.8318C50.708 39.3322 50.497 38.7549 50.364 38.0998C50.219 37.4448 50.147 36.7398 50.147 35.9849V35.6352C50.147 34.9024 50.219 34.2141 50.364 33.5702C50.497 32.9152 50.713 32.3379 51.013 31.8383C51.302 31.3276 51.685 30.9279 52.162 30.6392C52.639 30.3506 53.217 30.2063 53.894 30.2063C54.571 30.2063 55.149 30.3506 55.626 30.6392C56.092 30.9279 56.475 31.3276 56.775 31.8383C57.064 32.3379 57.275 32.9152 57.408 33.5702C57.541 34.2141 57.608 34.9024 57.608 35.6352ZM37.591 30.5227V44.811H42.403V26.7924H37.89L37.591 30.5227ZM38.257 35.1689H39.589C39.589 33.9144 39.439 32.7597 39.139 31.705C38.828 30.6392 38.379 29.7178 37.79 28.9406C37.191 28.1524 36.453 27.5418 35.576 27.1088C34.698 26.6758 33.683 26.4593 32.528 26.4593C31.729 26.4593 30.996 26.5814 30.33 26.8257C29.664 27.0588 29.092 27.4307 28.615 27.9414C28.126 28.441 27.749 29.0961 27.482 29.9065C27.216 30.7059 27.082 31.6662 27.082 32.7875V44.811H31.879V33.3204C31.879 32.4988 31.99 31.866 32.212 31.4219C32.434 30.9779 32.75 30.667 33.161 30.4894C33.561 30.3117 34.043 30.2229 34.61 30.2229C35.231 30.2229 35.775 30.3506 36.242 30.6059C36.697 30.8613 37.074 31.2165 37.374 31.6717C37.674 32.1158 37.896 32.6376 38.04 33.2371C38.185 33.8366 38.257 34.4806 38.257 35.1689ZM27.532 34.6193L29.247 34.8358C29.247 33.659 29.103 32.5655 28.814 31.5552C28.515 30.5449 28.076 29.6567 27.499 28.8907C26.91 28.1246 26.183 27.5307 25.317 27.1088C24.451 26.6758 23.452 26.4593 22.32 26.4593C21.454 26.4593 20.665 26.587 19.955 26.8423C19.244 27.0866 18.639 27.4807 18.14 28.0247C17.629 28.5576 17.24 29.257 16.974 30.123C16.696 30.989 16.558 32.0492 16.558 33.3037V44.811H21.37V33.3037C21.37 32.4711 21.481 31.8383 21.704 31.4053C21.914 30.9612 22.225 30.6559 22.636 30.4894C23.036 30.3117 23.513 30.2229 24.068 30.2229C24.646 30.2229 25.151 30.3395 25.584 30.5726C26.017 30.7947 26.377 31.1055 26.666 31.5052C26.955 31.9049 27.171 32.3712 27.316 32.9041C27.46 33.4259 27.532 33.9976 27.532 34.6193Z" fill="#425A8B"/>
<path d="M8.80099 19.6877H10.725L10.743 18.5064H9.097C8.822 18.5064 8.569 18.4676 8.336 18.39C8.103 18.3065 7.915 18.1872 7.772 18.032C7.629 17.8769 7.55701 17.686 7.55701 17.4593C7.55701 17.161 7.60801 16.9283 7.71001 16.7612C7.80501 16.5942 7.969 16.4719 8.202 16.3943C8.434 16.3168 8.74801 16.278 9.14101 16.278H10.323V22.7125H11.638V15.1056H9.14101C8.55101 15.1056 8.038 15.1951 7.60201 15.3741C7.16701 15.5471 6.83301 15.8067 6.60001 16.1527C6.36101 16.4987 6.242 16.9283 6.242 17.4414C6.242 17.7636 6.31901 18.0499 6.47501 18.3005C6.62401 18.5511 6.84101 18.7659 7.12801 18.9449C7.41401 19.1239 7.76899 19.27 8.19299 19.3834C8.21099 19.3834 8.232 19.4043 8.255 19.446C8.273 19.4818 8.29101 19.4997 8.30901 19.4997C8.41101 19.5594 8.476 19.6041 8.506 19.634C8.53 19.6578 8.55701 19.6728 8.58701 19.6787C8.61001 19.6847 8.68199 19.6877 8.80099 19.6877ZM8.89101 19.6877L8.703 18.7301C7.772 18.7301 7.137 18.9389 6.797 19.3565C6.451 19.7742 6.278 20.2992 6.278 20.9316V21.4328C6.278 21.6535 6.266 21.8653 6.242 22.0682C6.218 22.2651 6.17901 22.4321 6.12601 22.5694V22.7125H7.47701C7.53701 22.5574 7.572 22.3367 7.584 22.0503C7.59 21.7639 7.593 21.5551 7.593 21.4238V20.9406C7.593 20.517 7.69201 20.2038 7.88901 20.0009C8.08501 19.7921 8.42001 19.6877 8.89101 19.6877ZM14.305 19.0165C14.305 19.804 14.168 20.5379 13.894 21.218C13.619 21.8982 13.24 22.4948 12.757 23.0079C12.274 23.515 11.713 23.9118 11.075 24.1981C10.436 24.4785 9.75001 24.6187 9.01601 24.6187C8.28801 24.6187 7.608 24.4785 6.976 24.1981C6.337 23.9118 5.777 23.515 5.293 23.0079C4.81 22.4948 4.431 21.8982 4.157 21.218C3.882 20.5379 3.745 19.804 3.745 19.0165C3.745 18.223 3.882 17.4891 4.157 16.8149C4.431 16.1348 4.81 15.5412 5.293 15.034C5.777 14.5269 6.337 14.1331 6.976 13.8527C7.608 13.5723 8.28801 13.4321 9.01601 13.4321C9.75001 13.4321 10.436 13.5723 11.075 13.8527C11.713 14.1331 12.274 14.5269 12.757 15.034C13.24 15.5412 13.619 16.1348 13.894 16.8149C14.168 17.4891 14.305 18.223 14.305 19.0165ZM15.37 19.0165C15.37 18.0678 15.206 17.1878 14.878 16.3764C14.55 15.565 14.093 14.858 13.509 14.2554C12.924 13.6469 12.25 13.1756 11.486 12.8414C10.717 12.5014 9.89301 12.3313 9.01601 12.3313C8.13901 12.3313 7.31899 12.5014 6.55499 12.8414C5.78499 13.1756 5.111 13.6469 4.533 14.2554C3.948 14.858 3.49099 15.565 3.16299 16.3764C2.83499 17.1878 2.67101 18.0678 2.67101 19.0165C2.67101 19.9651 2.83499 20.8451 3.16299 21.6565C3.49099 22.4679 3.948 23.1779 4.533 23.7865C5.111 24.395 5.78499 24.8693 6.55499 25.2094C7.31899 25.5495 8.13901 25.7195 9.01601 25.7195C9.89301 25.7195 10.717 25.5495 11.486 25.2094C12.25 24.8693 12.924 24.395 13.509 23.7865C14.093 23.1779 14.55 22.4679 14.878 21.6565C15.206 20.8451 15.37 19.9651 15.37 19.0165Z" fill="#4C6290"/>
</svg>
