<svg width="111" height="37" viewBox="0 0 111 37" fill="none" xmlns="http://www.w3.org/2000/svg">
<path d="M101.272 4.80872L102.151 5.28556L99.7481 9.71431L98.8691 9.23747L101.272 4.80872Z" fill="#FD9636"/>
<path d="M100.413 2.19747C100.177 2.63209 100.076 3.12687 100.121 3.61923C100.166 4.11159 100.357 4.57943 100.668 4.96358C100.979 5.34773 101.398 5.63094 101.87 5.77739C102.342 5.92385 102.847 5.92697 103.321 5.78637C103.795 5.64576 104.217 5.36775 104.533 4.98748C104.849 4.60721 105.045 4.14176 105.097 3.65C105.148 3.15824 105.053 2.66224 104.822 2.22474C104.592 1.78724 104.237 1.42788 103.803 1.1921C103.219 0.879872 102.536 0.810319 101.901 0.998529C101.267 1.18674 100.732 1.61754 100.413 2.19747Z" fill="#36BEF9"/>
<path d="M84.8397 4.80872L83.9607 5.28556L86.3632 9.71431L87.2422 9.23747L84.8397 4.80872Z" fill="#FD9636"/>
<path d="M85.6984 2.19747C85.9342 2.63209 86.0358 3.12687 85.9903 3.61923C85.9449 4.11159 85.7545 4.57943 85.4432 4.96358C85.1319 5.34773 84.7137 5.63094 84.2414 5.77739C83.7691 5.92385 83.264 5.92697 82.79 5.78637C82.316 5.64576 81.8943 5.36775 81.5782 4.98748C81.2622 4.60721 81.066 4.14176 81.0145 3.65C80.963 3.15824 81.0585 2.66224 81.2889 2.22474C81.5192 1.78724 81.8742 1.42788 82.3088 1.1921C82.8924 0.879872 83.5756 0.810319 84.2101 0.998529C84.8447 1.18674 85.3794 1.61754 85.6984 2.19747Z" fill="#36BEF9"/>
<path d="M86.68 31.04H98.48C98.8831 31.04 99.2697 30.8799 99.5548 30.5948C99.8399 30.3097 100 29.9231 100 29.52C100 29.1169 99.8399 28.7303 99.5548 28.4452C99.2697 28.1601 98.8831 28 98.48 28H86.68C86.2769 28 85.8903 28.1601 85.6052 28.4452C85.3201 28.7303 85.16 29.1169 85.16 29.52C85.16 29.9231 85.3201 30.3097 85.6052 30.5948C85.8903 30.8799 86.2769 31.04 86.68 31.04Z" fill="#FD9636"/>
<path d="M107.96 23.76C106.281 23.76 104.92 22.399 104.92 20.72C104.92 19.0411 106.281 17.68 107.96 17.68C109.639 17.68 111 19.0411 111 20.72C111 22.399 109.639 23.76 107.96 23.76Z" fill="#36BEF9"/>
<path d="M77.22 23.56C75.5411 23.56 74.18 22.199 74.18 20.52C74.18 18.8411 75.5411 17.48 77.22 17.48C78.899 17.48 80.26 18.8411 80.26 20.52C80.26 22.199 78.899 23.56 77.22 23.56Z" fill="#36BEF9"/>
<path d="M92.2101 7.00001C92.2101 7.00001 79.8301 6.85001 77.8701 17.57C75.9101 28.29 86.3801 28.45 89.3901 28.66C90.7601 28.75 93.6801 28.76 96.2501 28.71C102 28.61 106 27.51 107.37 22.21C107.531 21.5911 107.631 20.9582 107.67 20.32C108 14.51 104.11 6.67001 92.2101 7.00001Z" fill="#36BEF9"/>
<path d="M101.19 23.29L83.1899 23.57C82.7421 23.5766 82.2974 23.495 81.8811 23.3297C81.4649 23.1644 81.0852 22.9187 80.7639 22.6067C80.4426 22.2947 80.186 21.9224 80.0085 21.5112C79.8311 21.1 79.7364 20.6578 79.7299 20.21C79.722 19.7614 79.8027 19.3155 79.9674 18.8981C80.132 18.4807 80.3775 18.0999 80.6896 17.7776C81.0018 17.4552 81.3745 17.1976 81.7864 17.0196C82.1983 16.8415 82.6413 16.7465 83.0899 16.74L101.09 16.46C101.995 16.4466 102.869 16.7928 103.52 17.4227C104.17 18.0526 104.544 18.9147 104.56 19.82C104.567 20.2691 104.485 20.7152 104.319 21.1327C104.153 21.5501 103.907 21.9308 103.594 22.2531C103.281 22.5753 102.907 22.8327 102.495 23.0106C102.083 23.1886 101.639 23.2835 101.19 23.29Z" fill="#FD9636"/>
<path d="M86.9399 19.84C86.8638 20.1054 86.6905 20.3324 86.4547 20.476C86.2189 20.6196 85.9377 20.6693 85.6669 20.6151C85.3962 20.561 85.1557 20.407 84.9932 20.1837C84.8308 19.9605 84.7582 19.6843 84.7899 19.41C84.8175 19.2695 84.8724 19.1357 84.9517 19.0164C85.0309 18.8971 85.1329 18.7946 85.2517 18.7148C85.3706 18.6349 85.504 18.5792 85.6444 18.551C85.7848 18.5227 85.9294 18.5224 86.0699 18.55C86.2118 18.5776 86.3468 18.6328 86.4673 18.7125C86.5878 18.7923 86.6914 18.895 86.7722 19.0148C86.853 19.1346 86.9094 19.2691 86.9382 19.4107C86.9669 19.5523 86.9675 19.6982 86.9399 19.84Z" fill="#425A8B"/>
<path d="M99.4999 19.63C99.4597 19.8447 99.3566 20.0425 99.2036 20.1983C99.0506 20.3541 98.8546 20.4608 98.6408 20.5049C98.4269 20.549 98.2047 20.5284 98.0026 20.4458C97.8004 20.3632 97.6275 20.2223 97.5057 20.041C97.3839 19.8597 97.3188 19.6463 97.3187 19.428C97.3186 19.2096 97.3836 18.9961 97.5052 18.8148C97.6269 18.6334 97.7997 18.4924 98.0018 18.4096C98.2039 18.3269 98.426 18.3061 98.6399 18.35C98.7811 18.3763 98.9156 18.4305 99.0356 18.5094C99.1556 18.5883 99.2586 18.6903 99.3387 18.8095C99.4187 18.9286 99.4743 19.0626 99.5019 19.2035C99.5296 19.3444 99.529 19.4894 99.4999 19.63Z" fill="#425A8B"/>
<path d="M89.9518 19.5723C89.9518 19.5723 89.8816 19.661 89.8725 19.8433C89.8613 20.1008 89.9117 20.3572 90.0195 20.5913C90.1736 20.9552 90.4184 21.2734 90.7306 21.5156C91.1189 21.8121 91.5937 21.9728 92.0822 21.9732C92.5719 21.9535 93.0403 21.7679 93.4105 21.4468C93.7094 21.1984 93.9391 20.877 94.0776 20.5139C94.1736 20.2768 94.2129 20.0206 94.1923 19.7657C94.1704 19.577 94.16 19.4876 94.1004 19.4945C94.0408 19.5014 94.0448 19.8835 93.7699 20.3784C93.6147 20.6635 93.3996 20.9116 93.1394 21.1057C92.8352 21.3445 92.4641 21.4825 92.0778 21.5005C91.7039 21.4867 91.3415 21.3682 91.0315 21.1586C90.7582 20.9768 90.5304 20.7345 90.3656 20.4506C90.0265 19.9563 90.0225 19.5742 89.9518 19.5723Z" fill="#425A8B"/>
<path d="M77.9 17.18C77.8581 17.2631 77.8246 17.3502 77.8 17.44C77.8 17.53 77.74 17.64 77.71 17.76C77.665 17.9011 77.6283 18.0447 77.6 18.19C77.528 18.5634 77.4779 18.9408 77.45 19.32C77.4152 19.786 77.4152 20.254 77.45 20.72C77.4957 21.1846 77.5725 21.6457 77.68 22.1C77.7598 22.4707 77.8667 22.835 78 23.19C78.05 23.34 78.12 23.47 78.17 23.59L78.32 23.89L78.46 24.13C78.4358 24.0386 78.3987 23.9511 78.35 23.87C78.35 23.79 78.27 23.69 78.22 23.57C78.17 23.45 78.11 23.32 78.06 23.16C77.93 22.8064 77.8198 22.4459 77.73 22.08C77.6233 21.6289 77.5465 21.1712 77.5 20.71C77.4704 20.2505 77.4704 19.7895 77.5 19.33C77.525 18.951 77.5717 18.5737 77.64 18.2C77.6621 18.0551 77.6921 17.9116 77.73 17.77C77.7483 17.6614 77.7751 17.5545 77.81 17.45C77.88 17.28 77.9 17.18 77.9 17.18Z" fill="#FFB800"/>
<path d="M107.23 17.25C107.267 17.334 107.297 17.4209 107.32 17.51C107.359 17.6148 107.392 17.7216 107.42 17.83C107.42 17.95 107.49 18.09 107.52 18.26C107.596 18.633 107.65 19.0104 107.68 19.39C107.714 19.856 107.714 20.324 107.68 20.79C107.638 21.2552 107.561 21.7165 107.45 22.17C107.354 22.5364 107.237 22.897 107.1 23.25C107.04 23.41 106.97 23.54 106.92 23.66C106.876 23.7598 106.826 23.8566 106.77 23.95C106.733 24.0384 106.686 24.1222 106.63 24.2C106.652 24.1079 106.689 24.02 106.74 23.94L106.87 23.63C106.92 23.51 106.98 23.38 107.03 23.23C107.164 22.8767 107.277 22.5161 107.37 22.15C107.468 21.6977 107.542 21.2404 107.59 20.78C107.619 20.3172 107.619 19.8529 107.59 19.39C107.564 19.0143 107.518 18.6404 107.45 18.27C107.45 18.11 107.39 17.97 107.37 17.84L107.29 17.52C107.256 17.4336 107.236 17.3425 107.23 17.25Z" fill="#FFB800"/>
<path d="M57.0488 28.2624V31H66.1158V28.2624H57.0488ZM64.9693 13.9658V31H68.4791V13.9658H64.9693ZM58.2305 20.9035V23.5709H66.1158V20.9035H58.2305ZM57.0605 13.9658V16.7151H66.1158V13.9658H57.0605ZM50.2164 28.6016C49.803 28.6016 49.4365 28.5236 49.1167 28.3676C48.7969 28.2039 48.5473 27.9777 48.3679 27.6891C48.1807 27.3927 48.0832 27.0456 48.0754 26.6478H44.9049C44.9127 27.537 45.1506 28.3287 45.6186 29.0228C46.0866 29.7092 46.7144 30.2512 47.5022 30.649C48.2899 31.039 49.1713 31.234 50.1462 31.234C51.129 31.234 51.9869 31.0702 52.7201 30.7426C53.4454 30.415 54.0499 29.9627 54.5335 29.3855C55.0171 28.8005 55.3797 28.122 55.6215 27.3498C55.8633 26.5699 55.9842 25.7353 55.9842 24.8461V24.5069C55.9842 23.6099 55.8633 22.7754 55.6215 22.0032C55.3797 21.2233 55.0171 20.5447 54.5335 19.9675C54.0499 19.3826 53.4454 18.9263 52.7201 18.5987C51.9947 18.2711 51.1446 18.1073 50.1696 18.1073C49.1323 18.1073 48.2236 18.3062 47.4437 18.704C46.6559 19.1018 46.0398 19.6711 45.5952 20.4121C45.1428 21.1453 44.9127 22.0149 44.9049 23.0211H48.0754C48.0832 22.5999 48.1729 22.2177 48.3445 21.8745C48.5083 21.5313 48.7501 21.2584 49.0699 21.0556C49.3819 20.845 49.7679 20.7397 50.2281 20.7397C50.7195 20.7397 51.1212 20.845 51.4332 21.0556C51.7451 21.2584 51.9869 21.5391 52.1585 21.8979C52.3301 22.2489 52.451 22.6506 52.5212 23.1029C52.5836 23.5475 52.6148 24.0155 52.6148 24.5069V24.8461C52.6148 25.3375 52.5836 25.8094 52.5212 26.2618C52.4588 26.7141 52.3418 27.1158 52.1702 27.4668C51.9908 27.8178 51.7451 28.0947 51.4332 28.2975C51.1212 28.5002 50.7156 28.6016 50.2164 28.6016ZM43.4893 24.7994V24.5537C43.4893 23.6255 43.3567 22.7715 43.0915 21.9915C42.8263 21.2038 42.4403 20.5213 41.9333 19.9441C41.4263 19.367 40.8024 18.9185 40.0614 18.5987C39.3204 18.2711 38.4703 18.1073 37.5109 18.1073C36.5516 18.1073 35.6975 18.2711 34.9488 18.5987C34.2 18.9185 33.5722 19.367 33.0652 19.9441C32.5504 20.5213 32.1605 21.2038 31.8953 21.9915C31.6301 22.7715 31.4975 23.6255 31.4975 24.5537V24.7994C31.4975 25.7197 31.6301 26.5738 31.8953 27.3615C32.1605 28.1415 32.5504 28.8239 33.0652 29.4089C33.5722 29.9861 34.1961 30.4345 34.9371 30.7543C35.6781 31.0741 36.5282 31.234 37.4875 31.234C38.4469 31.234 39.3009 31.0741 40.0497 30.7543C40.7907 30.4345 41.4185 29.9861 41.9333 29.4089C42.4403 28.8239 42.8263 28.1415 43.0915 27.3615C43.3567 26.5738 43.4893 25.7197 43.4893 24.7994ZM40.1199 24.5537V24.7994C40.1199 25.3297 40.0731 25.825 39.9795 26.2852C39.8859 26.7453 39.7377 27.1509 39.5349 27.5019C39.3243 27.8451 39.0514 28.1142 38.716 28.3092C38.3806 28.5041 37.9711 28.6016 37.4875 28.6016C37.0196 28.6016 36.6179 28.5041 36.2825 28.3092C35.9471 28.1142 35.6781 27.8451 35.4753 27.5019C35.2725 27.1509 35.1243 26.7453 35.0307 26.2852C34.9293 25.825 34.8786 25.3297 34.8786 24.7994V24.5537C34.8786 24.0389 34.9293 23.5553 35.0307 23.1029C35.1243 22.6428 35.2764 22.2372 35.487 21.8862C35.6897 21.5274 35.9588 21.2467 36.2942 21.0439C36.6296 20.8411 37.0352 20.7397 37.5109 20.7397C37.9867 20.7397 38.3923 20.8411 38.7277 21.0439C39.0553 21.2467 39.3243 21.5274 39.5349 21.8862C39.7377 22.2372 39.8859 22.6428 39.9795 23.1029C40.0731 23.5553 40.1199 24.0389 40.1199 24.5537ZM26.0573 20.962V31H29.4384V18.3413H26.2679L26.0573 20.962ZM26.5253 24.2261H27.4612C27.4612 23.3447 27.3559 22.5336 27.1453 21.7926C26.9269 21.0439 26.6111 20.3965 26.1977 19.8505C25.7765 19.2968 25.2578 18.8678 24.6417 18.5636C24.0255 18.2594 23.3119 18.1073 22.5007 18.1073C21.9391 18.1073 21.4244 18.1931 20.9564 18.3647C20.4884 18.5285 20.0867 18.7898 19.7514 19.1486C19.4082 19.4996 19.143 19.9597 18.9558 20.5291C18.7686 21.0907 18.675 21.7653 18.675 22.5531V31H22.0444V22.9275C22.0444 22.3503 22.1224 21.9057 22.2784 21.5937C22.4344 21.2818 22.6567 21.0634 22.9453 20.9386C23.2261 20.8138 23.5653 20.7514 23.9631 20.7514C24.3999 20.7514 24.7821 20.8411 25.1096 21.0205C25.4294 21.1999 25.6946 21.4494 25.9052 21.7692C26.1158 22.0812 26.2718 22.4478 26.3732 22.869C26.4746 23.2901 26.5253 23.7425 26.5253 24.2261ZM18.9909 23.84L20.1959 23.9921C20.1959 23.1653 20.0945 22.3971 19.8917 21.6873C19.6812 20.9776 19.3731 20.3536 18.9675 19.8154C18.5541 19.2773 18.0433 18.86 17.4349 18.5636C16.8265 18.2594 16.1246 18.1073 15.329 18.1073C14.7206 18.1073 14.1669 18.197 13.6677 18.3764C13.1685 18.548 12.7435 18.8249 12.3925 19.2071C12.0337 19.5814 11.7607 20.0728 11.5735 20.6812C11.3785 21.2896 11.281 22.0344 11.281 22.9158V31H14.6621V22.9158C14.6621 22.3308 14.7401 21.8862 14.8961 21.582C15.0443 21.2701 15.2627 21.0556 15.5513 20.9386C15.8321 20.8138 16.1675 20.7514 16.5574 20.7514C16.963 20.7514 17.3179 20.8333 17.6221 20.9971C17.9263 21.1531 18.1797 21.3714 18.3825 21.6522C18.5853 21.933 18.7374 22.2606 18.8388 22.635C18.9402 23.0016 18.9909 23.4032 18.9909 23.84Z" fill="#425A8B"/>
<path d="M5.832 13.8882H7.184L7.196 13.0583H6.039C5.847 13.0583 5.668 13.031 5.505 12.9765C5.342 12.9179 5.21 12.834 5.109 12.7251C5.008 12.6161 4.958 12.482 4.958 12.3227C4.958 12.1131 4.994 11.9496 5.065 11.8323C5.132 11.7149 5.247 11.629 5.411 11.5745C5.574 11.52 5.794 11.4928 6.071 11.4928H6.901V16.0133H7.825V10.6691H6.071C5.656 10.6691 5.295 10.732 4.989 10.8578C4.683 10.9793 4.449 11.1616 4.285 11.4047C4.118 11.6479 4.034 11.9496 4.034 12.3101C4.034 12.5364 4.088 12.7376 4.197 12.9137C4.302 13.0897 4.455 13.2406 4.656 13.3663C4.857 13.4921 5.107 13.5948 5.404 13.6744C5.417 13.6744 5.432 13.6891 5.448 13.7184C5.461 13.7436 5.474 13.7562 5.486 13.7562C5.557 13.7981 5.604 13.8295 5.624 13.8505C5.641 13.8672 5.66 13.8777 5.681 13.8819C5.698 13.8861 5.748 13.8882 5.832 13.8882ZM5.895 13.8882L5.763 13.2155C5.109 13.2155 4.663 13.3622 4.424 13.6556C4.181 13.949 4.059 14.3178 4.059 14.7621V15.1142C4.059 15.2693 4.051 15.4181 4.034 15.5606C4.017 15.6989 3.99 15.8163 3.952 15.9127V16.0133H4.901C4.943 15.9043 4.968 15.7492 4.977 15.548C4.981 15.3468 4.983 15.2001 4.983 15.1079V14.7684C4.983 14.4708 5.052 14.2507 5.191 14.1082C5.329 13.9615 5.564 13.8882 5.895 13.8882ZM9.699 13.4166C9.699 13.9699 9.602 14.4855 9.409 14.9633C9.217 15.4411 8.95 15.8603 8.611 16.2207C8.271 16.577 7.877 16.8557 7.429 17.0569C6.98 17.2539 6.498 17.3524 5.983 17.3524C5.471 17.3524 4.994 17.2539 4.549 17.0569C4.101 16.8557 3.707 16.577 3.367 16.2207C3.028 15.8603 2.762 15.4411 2.569 14.9633C2.376 14.4855 2.28 13.9699 2.28 13.4166C2.28 12.8592 2.376 12.3436 2.569 11.87C2.762 11.3922 3.028 10.9751 3.367 10.6189C3.707 10.2626 4.101 9.98591 4.549 9.78891C4.994 9.59191 5.471 9.49342 5.983 9.49342C6.498 9.49342 6.98 9.59191 7.429 9.78891C7.877 9.98591 8.271 10.2626 8.611 10.6189C8.95 10.9751 9.217 11.3922 9.409 11.87C9.602 12.3436 9.699 12.8592 9.699 13.4166ZM10.447 13.4166C10.447 12.7502 10.331 12.132 10.101 11.5619C9.87 10.9919 9.55 10.4952 9.139 10.0719C8.728 9.64431 8.255 9.31318 7.718 9.07846C7.177 8.83955 6.599 8.72009 5.983 8.72009C5.367 8.72009 4.79 8.83955 4.254 9.07846C3.713 9.31318 3.24 9.64431 2.833 10.0719C2.422 10.4952 2.102 10.9919 1.871 11.5619C1.64 12.132 1.525 12.7502 1.525 13.4166C1.525 14.0831 1.64 14.7013 1.871 15.2714C2.102 15.8414 2.422 16.3402 2.833 16.7677C3.24 17.1952 3.713 17.5285 4.254 17.7674C4.79 18.0063 5.367 18.1257 5.983 18.1257C6.599 18.1257 7.177 18.0063 7.718 17.7674C8.255 17.5285 8.728 17.1952 9.139 16.7677C9.55 16.3402 9.87 15.8414 10.101 15.2714C10.331 14.7013 10.447 14.0831 10.447 13.4166Z" fill="#4C6290"/>
</svg>
